<mxfile host="app.diagrams.net" agent="Mozilla/5.0 (Windows NT 10.0; Win64; x64) AppleWebKit/537.36 (KHTML, like Gecko) Chrome/129.0.0.0 Safari/537.36 Edg/129.0.0.0" version="24.7.16">
  <diagram name="Страница — 1" id="3CPMpLebl-1jjfJIK-z_">
    <mxGraphModel dx="990" dy="657" grid="1" gridSize="10" guides="1" tooltips="1" connect="1" arrows="1" fold="1" page="1" pageScale="1" pageWidth="827" pageHeight="1169" math="0" shadow="0">
      <root>
        <mxCell id="0" />
        <mxCell id="1" parent="0" />
        <mxCell id="FRs5H7n3xmvRlvuZ6DSw-92" value="" style="group" vertex="1" connectable="0" parent="1">
          <mxGeometry x="570" y="730" width="160" height="80" as="geometry" />
        </mxCell>
        <mxCell id="FRs5H7n3xmvRlvuZ6DSw-93" value="Проведение игры" style="rounded=0;whiteSpace=wrap;html=1;" vertex="1" parent="FRs5H7n3xmvRlvuZ6DSw-92">
          <mxGeometry width="160" height="80" as="geometry" />
        </mxCell>
        <mxCell id="FRs5H7n3xmvRlvuZ6DSw-94" value="" style="endArrow=none;html=1;rounded=0;entryX=0.185;entryY=0.002;entryDx=0;entryDy=0;exitX=0;exitY=0.373;exitDx=0;exitDy=0;entryPerimeter=0;exitPerimeter=0;" edge="1" parent="FRs5H7n3xmvRlvuZ6DSw-92" source="FRs5H7n3xmvRlvuZ6DSw-93" target="FRs5H7n3xmvRlvuZ6DSw-93">
          <mxGeometry width="50" height="50" relative="1" as="geometry">
            <mxPoint x="-9.999999999999986" y="5.684341886080802e-14" as="sourcePoint" />
            <mxPoint x="32.60000000000004" y="-39.78" as="targetPoint" />
          </mxGeometry>
        </mxCell>
        <mxCell id="FRs5H7n3xmvRlvuZ6DSw-95" value="&lt;font style=&quot;font-size: 10px;&quot;&gt;А3.1.1&lt;/font&gt;" style="rounded=0;whiteSpace=wrap;html=1;" vertex="1" parent="FRs5H7n3xmvRlvuZ6DSw-92">
          <mxGeometry y="65" width="80" height="15" as="geometry" />
        </mxCell>
        <mxCell id="FRs5H7n3xmvRlvuZ6DSw-96" value="" style="rounded=0;whiteSpace=wrap;html=1;" vertex="1" parent="FRs5H7n3xmvRlvuZ6DSw-92">
          <mxGeometry x="80" y="65" width="80" height="15" as="geometry" />
        </mxCell>
        <mxCell id="FRs5H7n3xmvRlvuZ6DSw-97" value="" style="group" vertex="1" connectable="0" parent="1">
          <mxGeometry x="790" y="740" width="40" height="60" as="geometry" />
        </mxCell>
        <mxCell id="FRs5H7n3xmvRlvuZ6DSw-98" value="Х" style="rounded=0;whiteSpace=wrap;html=1;" vertex="1" parent="FRs5H7n3xmvRlvuZ6DSw-97">
          <mxGeometry x="10" width="30" height="60" as="geometry" />
        </mxCell>
        <mxCell id="FRs5H7n3xmvRlvuZ6DSw-99" value="" style="rounded=0;whiteSpace=wrap;html=1;" vertex="1" parent="FRs5H7n3xmvRlvuZ6DSw-97">
          <mxGeometry width="10" height="60" as="geometry" />
        </mxCell>
        <mxCell id="FRs5H7n3xmvRlvuZ6DSw-100" style="edgeStyle=orthogonalEdgeStyle;rounded=0;orthogonalLoop=1;jettySize=auto;html=1;entryX=0;entryY=0.5;entryDx=0;entryDy=0;" edge="1" parent="1" source="FRs5H7n3xmvRlvuZ6DSw-93" target="FRs5H7n3xmvRlvuZ6DSw-99">
          <mxGeometry relative="1" as="geometry" />
        </mxCell>
        <mxCell id="FRs5H7n3xmvRlvuZ6DSw-101" value="" style="group" vertex="1" connectable="0" parent="1">
          <mxGeometry x="570" y="600" width="160" height="80" as="geometry" />
        </mxCell>
        <mxCell id="FRs5H7n3xmvRlvuZ6DSw-102" value="Пользователь" style="rounded=0;whiteSpace=wrap;html=1;" vertex="1" parent="FRs5H7n3xmvRlvuZ6DSw-101">
          <mxGeometry width="160" height="80" as="geometry" />
        </mxCell>
        <mxCell id="FRs5H7n3xmvRlvuZ6DSw-103" value="" style="endArrow=none;html=1;rounded=0;entryX=0.185;entryY=0.002;entryDx=0;entryDy=0;exitX=0;exitY=0.373;exitDx=0;exitDy=0;entryPerimeter=0;exitPerimeter=0;" edge="1" parent="FRs5H7n3xmvRlvuZ6DSw-101" source="FRs5H7n3xmvRlvuZ6DSw-102" target="FRs5H7n3xmvRlvuZ6DSw-102">
          <mxGeometry width="50" height="50" relative="1" as="geometry">
            <mxPoint x="-9.999999999999986" y="5.684341886080802e-14" as="sourcePoint" />
            <mxPoint x="32.60000000000004" y="-39.78" as="targetPoint" />
          </mxGeometry>
        </mxCell>
        <mxCell id="FRs5H7n3xmvRlvuZ6DSw-104" style="edgeStyle=orthogonalEdgeStyle;rounded=0;orthogonalLoop=1;jettySize=auto;html=1;endArrow=none;endFill=0;dashed=1;" edge="1" parent="1" source="FRs5H7n3xmvRlvuZ6DSw-102" target="FRs5H7n3xmvRlvuZ6DSw-93">
          <mxGeometry relative="1" as="geometry" />
        </mxCell>
        <mxCell id="FRs5H7n3xmvRlvuZ6DSw-105" value="" style="group" vertex="1" connectable="0" parent="1">
          <mxGeometry x="570" y="860" width="160" height="80" as="geometry" />
        </mxCell>
        <mxCell id="FRs5H7n3xmvRlvuZ6DSw-106" value="Запись участника" style="rounded=0;whiteSpace=wrap;html=1;" vertex="1" parent="FRs5H7n3xmvRlvuZ6DSw-105">
          <mxGeometry width="160" height="80" as="geometry" />
        </mxCell>
        <mxCell id="FRs5H7n3xmvRlvuZ6DSw-107" value="" style="endArrow=none;html=1;rounded=0;entryX=0.185;entryY=0.002;entryDx=0;entryDy=0;exitX=0;exitY=0.373;exitDx=0;exitDy=0;entryPerimeter=0;exitPerimeter=0;" edge="1" parent="FRs5H7n3xmvRlvuZ6DSw-105" source="FRs5H7n3xmvRlvuZ6DSw-106" target="FRs5H7n3xmvRlvuZ6DSw-106">
          <mxGeometry width="50" height="50" relative="1" as="geometry">
            <mxPoint x="-9.999999999999986" y="5.684341886080802e-14" as="sourcePoint" />
            <mxPoint x="32.60000000000004" y="-39.78" as="targetPoint" />
          </mxGeometry>
        </mxCell>
        <mxCell id="FRs5H7n3xmvRlvuZ6DSw-108" style="edgeStyle=orthogonalEdgeStyle;rounded=0;orthogonalLoop=1;jettySize=auto;html=1;entryX=0;entryY=1;entryDx=0;entryDy=0;endArrow=none;endFill=0;dashed=1;" edge="1" parent="1" source="FRs5H7n3xmvRlvuZ6DSw-106" target="FRs5H7n3xmvRlvuZ6DSw-96">
          <mxGeometry relative="1" as="geometry" />
        </mxCell>
        <mxCell id="FRs5H7n3xmvRlvuZ6DSw-109" value="" style="group" vertex="1" connectable="0" parent="1">
          <mxGeometry x="860" y="590" width="160" height="80" as="geometry" />
        </mxCell>
        <mxCell id="FRs5H7n3xmvRlvuZ6DSw-110" value="Игра&amp;nbsp;&lt;span style=&quot;background-color: initial;&quot;&gt;завершена&lt;/span&gt;&lt;div&gt;&lt;span style=&quot;background-color: initial;&quot;&gt;успешно&lt;/span&gt;&lt;/div&gt;" style="rounded=0;whiteSpace=wrap;html=1;" vertex="1" parent="FRs5H7n3xmvRlvuZ6DSw-109">
          <mxGeometry width="160" height="80" as="geometry" />
        </mxCell>
        <mxCell id="FRs5H7n3xmvRlvuZ6DSw-111" value="" style="endArrow=none;html=1;rounded=0;entryX=0.185;entryY=0.002;entryDx=0;entryDy=0;exitX=0;exitY=0.373;exitDx=0;exitDy=0;entryPerimeter=0;exitPerimeter=0;" edge="1" parent="FRs5H7n3xmvRlvuZ6DSw-109" source="FRs5H7n3xmvRlvuZ6DSw-110" target="FRs5H7n3xmvRlvuZ6DSw-110">
          <mxGeometry width="50" height="50" relative="1" as="geometry">
            <mxPoint x="-9.999999999999986" y="5.684341886080802e-14" as="sourcePoint" />
            <mxPoint x="32.60000000000004" y="-39.78" as="targetPoint" />
          </mxGeometry>
        </mxCell>
        <mxCell id="FRs5H7n3xmvRlvuZ6DSw-112" value="&lt;font style=&quot;font-size: 10px;&quot;&gt;А3.1.2&lt;/font&gt;" style="rounded=0;whiteSpace=wrap;html=1;" vertex="1" parent="FRs5H7n3xmvRlvuZ6DSw-109">
          <mxGeometry y="65" width="80" height="15" as="geometry" />
        </mxCell>
        <mxCell id="FRs5H7n3xmvRlvuZ6DSw-113" value="" style="rounded=0;whiteSpace=wrap;html=1;" vertex="1" parent="FRs5H7n3xmvRlvuZ6DSw-109">
          <mxGeometry x="80" y="65" width="80" height="15" as="geometry" />
        </mxCell>
        <mxCell id="FRs5H7n3xmvRlvuZ6DSw-114" value="" style="group" vertex="1" connectable="0" parent="1">
          <mxGeometry x="860" y="860" width="160" height="80" as="geometry" />
        </mxCell>
        <mxCell id="FRs5H7n3xmvRlvuZ6DSw-115" value="Возникли проблемы" style="rounded=0;whiteSpace=wrap;html=1;" vertex="1" parent="FRs5H7n3xmvRlvuZ6DSw-114">
          <mxGeometry width="160" height="80" as="geometry" />
        </mxCell>
        <mxCell id="FRs5H7n3xmvRlvuZ6DSw-116" value="" style="endArrow=none;html=1;rounded=0;entryX=0.185;entryY=0.002;entryDx=0;entryDy=0;exitX=0;exitY=0.373;exitDx=0;exitDy=0;entryPerimeter=0;exitPerimeter=0;" edge="1" parent="FRs5H7n3xmvRlvuZ6DSw-114" source="FRs5H7n3xmvRlvuZ6DSw-115" target="FRs5H7n3xmvRlvuZ6DSw-115">
          <mxGeometry width="50" height="50" relative="1" as="geometry">
            <mxPoint x="-9.999999999999986" y="5.684341886080802e-14" as="sourcePoint" />
            <mxPoint x="32.60000000000004" y="-39.78" as="targetPoint" />
          </mxGeometry>
        </mxCell>
        <mxCell id="FRs5H7n3xmvRlvuZ6DSw-117" value="&lt;font style=&quot;font-size: 10px;&quot;&gt;А3.1.3&lt;/font&gt;" style="rounded=0;whiteSpace=wrap;html=1;" vertex="1" parent="FRs5H7n3xmvRlvuZ6DSw-114">
          <mxGeometry y="65" width="80" height="15" as="geometry" />
        </mxCell>
        <mxCell id="FRs5H7n3xmvRlvuZ6DSw-118" value="" style="rounded=0;whiteSpace=wrap;html=1;" vertex="1" parent="FRs5H7n3xmvRlvuZ6DSw-114">
          <mxGeometry x="80" y="65" width="80" height="15" as="geometry" />
        </mxCell>
        <mxCell id="FRs5H7n3xmvRlvuZ6DSw-119" style="edgeStyle=orthogonalEdgeStyle;rounded=0;orthogonalLoop=1;jettySize=auto;html=1;entryX=0;entryY=0.5;entryDx=0;entryDy=0;exitX=0.5;exitY=0;exitDx=0;exitDy=0;" edge="1" parent="1" source="FRs5H7n3xmvRlvuZ6DSw-98" target="FRs5H7n3xmvRlvuZ6DSw-110">
          <mxGeometry relative="1" as="geometry" />
        </mxCell>
        <mxCell id="FRs5H7n3xmvRlvuZ6DSw-120" style="edgeStyle=orthogonalEdgeStyle;rounded=0;orthogonalLoop=1;jettySize=auto;html=1;entryX=0;entryY=0.5;entryDx=0;entryDy=0;exitX=0.5;exitY=1;exitDx=0;exitDy=0;" edge="1" parent="1" source="FRs5H7n3xmvRlvuZ6DSw-98" target="FRs5H7n3xmvRlvuZ6DSw-115">
          <mxGeometry relative="1" as="geometry" />
        </mxCell>
        <mxCell id="FRs5H7n3xmvRlvuZ6DSw-121" value="" style="group" vertex="1" connectable="0" parent="1">
          <mxGeometry x="1040" y="740" width="40" height="60" as="geometry" />
        </mxCell>
        <mxCell id="FRs5H7n3xmvRlvuZ6DSw-122" value="Х" style="rounded=0;whiteSpace=wrap;html=1;" vertex="1" parent="FRs5H7n3xmvRlvuZ6DSw-121">
          <mxGeometry x="10" width="30" height="60" as="geometry" />
        </mxCell>
        <mxCell id="FRs5H7n3xmvRlvuZ6DSw-123" value="" style="rounded=0;whiteSpace=wrap;html=1;" vertex="1" parent="FRs5H7n3xmvRlvuZ6DSw-121">
          <mxGeometry width="10" height="60" as="geometry" />
        </mxCell>
        <mxCell id="FRs5H7n3xmvRlvuZ6DSw-124" style="edgeStyle=orthogonalEdgeStyle;rounded=0;orthogonalLoop=1;jettySize=auto;html=1;entryX=0.5;entryY=0;entryDx=0;entryDy=0;" edge="1" parent="1" source="FRs5H7n3xmvRlvuZ6DSw-110" target="FRs5H7n3xmvRlvuZ6DSw-122">
          <mxGeometry relative="1" as="geometry" />
        </mxCell>
        <mxCell id="FRs5H7n3xmvRlvuZ6DSw-125" style="edgeStyle=orthogonalEdgeStyle;rounded=0;orthogonalLoop=1;jettySize=auto;html=1;entryX=0.5;entryY=1;entryDx=0;entryDy=0;" edge="1" parent="1" source="FRs5H7n3xmvRlvuZ6DSw-115" target="FRs5H7n3xmvRlvuZ6DSw-122">
          <mxGeometry relative="1" as="geometry">
            <mxPoint x="1105" y="802" as="targetPoint" />
          </mxGeometry>
        </mxCell>
        <mxCell id="FRs5H7n3xmvRlvuZ6DSw-126" value="J7" style="text;html=1;align=center;verticalAlign=middle;whiteSpace=wrap;rounded=0;" vertex="1" parent="1">
          <mxGeometry x="814" y="790" width="60" height="30" as="geometry" />
        </mxCell>
        <mxCell id="FRs5H7n3xmvRlvuZ6DSw-127" value="J8" style="text;html=1;align=center;verticalAlign=middle;whiteSpace=wrap;rounded=0;" vertex="1" parent="1">
          <mxGeometry x="1070" y="790" width="50" height="30" as="geometry" />
        </mxCell>
        <mxCell id="FRs5H7n3xmvRlvuZ6DSw-128" style="edgeStyle=orthogonalEdgeStyle;rounded=0;orthogonalLoop=1;jettySize=auto;html=1;entryX=0;entryY=0.5;entryDx=0;entryDy=0;" edge="1" parent="1" source="FRs5H7n3xmvRlvuZ6DSw-122">
          <mxGeometry relative="1" as="geometry">
            <mxPoint x="1140" y="770" as="targetPoint" />
          </mxGeometry>
        </mxCell>
        <mxCell id="FRs5H7n3xmvRlvuZ6DSw-129" value="" style="group" vertex="1" connectable="0" parent="1">
          <mxGeometry x="350" y="730" width="160" height="80" as="geometry" />
        </mxCell>
        <mxCell id="FRs5H7n3xmvRlvuZ6DSw-130" value="Ведущий" style="rounded=0;whiteSpace=wrap;html=1;" vertex="1" parent="FRs5H7n3xmvRlvuZ6DSw-129">
          <mxGeometry width="160" height="80" as="geometry" />
        </mxCell>
        <mxCell id="FRs5H7n3xmvRlvuZ6DSw-131" value="" style="endArrow=none;html=1;rounded=0;entryX=0.185;entryY=0.002;entryDx=0;entryDy=0;exitX=0;exitY=0.373;exitDx=0;exitDy=0;entryPerimeter=0;exitPerimeter=0;" edge="1" parent="FRs5H7n3xmvRlvuZ6DSw-129" source="FRs5H7n3xmvRlvuZ6DSw-130" target="FRs5H7n3xmvRlvuZ6DSw-130">
          <mxGeometry width="50" height="50" relative="1" as="geometry">
            <mxPoint x="-9.999999999999986" y="5.684341886080802e-14" as="sourcePoint" />
            <mxPoint x="32.60000000000004" y="-39.78" as="targetPoint" />
          </mxGeometry>
        </mxCell>
        <mxCell id="FRs5H7n3xmvRlvuZ6DSw-132" style="edgeStyle=orthogonalEdgeStyle;rounded=0;orthogonalLoop=1;jettySize=auto;html=1;entryX=0;entryY=0.5;entryDx=0;entryDy=0;endArrow=none;endFill=0;dashed=1;" edge="1" parent="1" source="FRs5H7n3xmvRlvuZ6DSw-130" target="FRs5H7n3xmvRlvuZ6DSw-93">
          <mxGeometry relative="1" as="geometry" />
        </mxCell>
        <mxCell id="FRs5H7n3xmvRlvuZ6DSw-133" value="" style="group" vertex="1" connectable="0" parent="1">
          <mxGeometry x="1140" y="730" width="160" height="80" as="geometry" />
        </mxCell>
        <mxCell id="FRs5H7n3xmvRlvuZ6DSw-134" value="Внесение&amp;nbsp;&lt;div&gt;результатов игры&lt;/div&gt;" style="rounded=0;whiteSpace=wrap;html=1;" vertex="1" parent="FRs5H7n3xmvRlvuZ6DSw-133">
          <mxGeometry width="160" height="80" as="geometry" />
        </mxCell>
        <mxCell id="FRs5H7n3xmvRlvuZ6DSw-135" value="" style="endArrow=none;html=1;rounded=0;entryX=0.185;entryY=0.002;entryDx=0;entryDy=0;exitX=0;exitY=0.373;exitDx=0;exitDy=0;entryPerimeter=0;exitPerimeter=0;" edge="1" parent="FRs5H7n3xmvRlvuZ6DSw-133" source="FRs5H7n3xmvRlvuZ6DSw-134" target="FRs5H7n3xmvRlvuZ6DSw-134">
          <mxGeometry width="50" height="50" relative="1" as="geometry">
            <mxPoint x="-9.999999999999986" y="5.684341886080802e-14" as="sourcePoint" />
            <mxPoint x="32.60000000000004" y="-39.78" as="targetPoint" />
          </mxGeometry>
        </mxCell>
        <mxCell id="FRs5H7n3xmvRlvuZ6DSw-136" value="&lt;font style=&quot;font-size: 10px;&quot;&gt;А3.1.4&lt;/font&gt;" style="rounded=0;whiteSpace=wrap;html=1;" vertex="1" parent="FRs5H7n3xmvRlvuZ6DSw-133">
          <mxGeometry y="65" width="80" height="15" as="geometry" />
        </mxCell>
        <mxCell id="FRs5H7n3xmvRlvuZ6DSw-137" value="" style="rounded=0;whiteSpace=wrap;html=1;" vertex="1" parent="FRs5H7n3xmvRlvuZ6DSw-133">
          <mxGeometry x="80" y="65" width="80" height="15" as="geometry" />
        </mxCell>
        <mxCell id="FRs5H7n3xmvRlvuZ6DSw-138" value="" style="endArrow=classic;html=1;rounded=0;" edge="1" parent="1" source="FRs5H7n3xmvRlvuZ6DSw-134">
          <mxGeometry width="50" height="50" relative="1" as="geometry">
            <mxPoint x="1380" y="780" as="sourcePoint" />
            <mxPoint x="1430" y="770" as="targetPoint" />
          </mxGeometry>
        </mxCell>
        <mxCell id="FRs5H7n3xmvRlvuZ6DSw-140" value="" style="endArrow=classic;html=1;rounded=0;" edge="1" parent="1" source="FRs5H7n3xmvRlvuZ6DSw-134" target="FRs5H7n3xmvRlvuZ6DSw-139">
          <mxGeometry width="50" height="50" relative="1" as="geometry">
            <mxPoint x="1300" y="770" as="sourcePoint" />
            <mxPoint x="1460" y="770" as="targetPoint" />
          </mxGeometry>
        </mxCell>
        <mxCell id="FRs5H7n3xmvRlvuZ6DSw-139" value="Результаты игры" style="text;html=1;align=center;verticalAlign=middle;resizable=0;points=[];autosize=1;strokeColor=none;fillColor=none;" vertex="1" parent="1">
          <mxGeometry x="1300" y="740" width="120" height="30" as="geometry" />
        </mxCell>
      </root>
    </mxGraphModel>
  </diagram>
</mxfile>
